<mxfile host="app.diagrams.net" modified="2023-10-17T20:17:58.825Z" agent="Mozilla/5.0 (Windows NT 10.0; Win64; x64) AppleWebKit/537.36 (KHTML, like Gecko) Chrome/118.0.0.0 Safari/537.36" version="22.0.4" etag="L4i5-aX6lY4-TCCq8yIY" type="github">
  <diagram name="Страница — 1" id="Mhvf0B7TW0zvJHyyf7id">
    <mxGraphModel>
      <root>
        <mxCell id="0" />
        <mxCell id="1" parent="0" />
      </root>
    </mxGraphModel>
  </diagram>
</mxfile>
